<svg xmlns:dc="http://purl.org/dc/elements/1.1/" xmlns:cc="http://creativecommons.org/ns#" xmlns:rdf="http://www.w3.org/1999/02/22-rdf-syntax-ns#" xmlns:svg="http://www.w3.org/2000/svg" xmlns="http://www.w3.org/2000/svg" xmlns:sodipodi="http://sodipodi.sourceforge.net/DTD/sodipodi-0.dtd" xmlns:inkscape="http://www.inkscape.org/namespaces/inkscape" version="1.1" x="0px" y="0px" viewBox="0 0 100 125"><g transform="translate(0,-952.36218)"><path style="text-indent:0;text-transform:none;direction:ltr;block-progression:tb;baseline-shift:baseline;color:#000000;enable-background:accumulate;" d="m 30.763177,962.43416 c -6.1734,0 -12.361404,2.4752 -16.937504,7.4375 -9.1523002,9.9244 -9.1390202,25.5705 0,35.50004 l 32.500004,35.3125 a 5.0005,5.0005 0 0 0 7.34375,0 c 10.83865,-11.7534 21.66129,-23.4962 32.5,-35.25 9.15227,-9.92444 9.15212,-25.60654 0,-35.53134 -9.15214,-9.9247 -24.69148,-9.9249 -33.84375,0 l -2.3125,2.5 -2.34375,-2.5312 c -4.57615,-4.9623 -10.73285,-7.4375 -16.90625,-7.4375 z m 0,9.7187 c 3.40435,0 6.79958,1.504 9.5625,4.5 l 6.03125,6.5313 a 5.0005,5.0005 0 0 0 7.34375,0 l 6,-6.5 c 5.52583,-5.9924 13.59928,-5.9922 19.125,0 5.52576,5.9922 5.52561,15.977 0,21.9687 -9.60875,10.42004 -19.20367,20.83034 -28.8125,31.25004 l -28.8125,-31.28124 c -5.524684,-6.0025 -5.525584,-15.977 0,-21.9688 2.76286,-2.996 6.15815,-4.5 9.5625,-4.5 z" fill="#030453" fill-opacity="1" stroke="none" marker="none" visibility="visible" display="inline" overflow="visible"/></g></svg>